<?xml version="1.0" encoding="UTF-8" standalone="no"?>
<!DOCTYPE svg PUBLIC "-//W3C//DTD SVG 1.1//EN" "http://www.w3.org/Graphics/SVG/1.1/DTD/svg11.dtd">
<svg width="100%" height="100%" viewBox="0 0 512 512" version="1.1" xmlns="http://www.w3.org/2000/svg" xmlns:xlink="http://www.w3.org/1999/xlink" xml:space="preserve" xmlns:serif="http://www.serif.com/" style="fill-rule:evenodd;clip-rule:evenodd;stroke-linejoin:round;stroke-miterlimit:2;">
    <g id="haan" transform="matrix(1,0,0,1,24.9533,-0.0254342)">
        <g id="kop">
            <g id="icon_building_block" transform="matrix(0.517988,0,0,0.539409,99.0495,214.52)">
                <path d="M187,269L245,325L187,381L129,325L187,269Z" style="fill:rgb(0,0,0);"/>
            </g>
            <g id="icon_building_block1" serif:id="icon_building_block" transform="matrix(0.517988,0,0,0.539409,189.18,184.313)">
                <path d="M187,269L245,325L187,381L129,325L187,269Z" style="fill:rgb(0,0,0);"/>
            </g>
            <g id="icon_building_block2" serif:id="icon_building_block" transform="matrix(0.517988,0,0,0.539409,249.266,184.313)">
                <path d="M187,269L245,325L187,381L129,325L187,269Z" style="fill:rgb(0,0,0);"/>
            </g>
            <g id="icon_building_block3" serif:id="icon_building_block" transform="matrix(0.517988,0,0,0.539409,69.0062,184.313)">
                <path d="M187,269L245,325L187,381L129,325L187,269Z" style="fill:rgb(0,0,0);"/>
            </g>
            <g id="icon_building_block4" serif:id="icon_building_block" transform="matrix(0.517988,0,0,0.539409,38.9629,154.106)">
                <path d="M187,269L245,325L187,381L129,325L187,269Z" style="fill:rgb(0,0,0);"/>
            </g>
            <g id="icon_building_block5" serif:id="icon_building_block" transform="matrix(0.517988,0,0,0.539409,69.0062,123.899)">
                <path d="M187,269L245,325L187,381L129,325L187,269Z" style="fill:rgb(0,0,0);"/>
            </g>
            <g id="icon_building_block6" serif:id="icon_building_block" transform="matrix(0.517988,0,0,0.539409,69.0062,3.5197)">
                <path d="M187,269L245,325L187,381L129,325L187,269Z" style="fill:rgb(0,0,0);"/>
            </g>
            <g id="icon_building_block7" serif:id="icon_building_block" transform="matrix(0.517988,0,0,0.539409,189.18,-56.8941)">
                <path d="M187,269L245,325L187,381L129,325L187,269Z" style="fill:rgb(0,0,0);"/>
            </g>
            <g id="icon_building_block8" serif:id="icon_building_block" transform="matrix(0.517988,0,0,0.539409,69.0062,63.4852)">
                <path d="M187,269L245,325L187,381L129,325L187,269Z" style="fill:rgb(0,0,0);"/>
            </g>
            <g id="icon_building_block9" serif:id="icon_building_block" transform="matrix(0.517988,0,0,0.539409,219.18,-26.6872)">
                <path d="M187,269L245,325L187,381L129,325L187,269Z" style="fill:rgb(0,0,0);"/>
            </g>
            <g id="icon_building_block10" serif:id="icon_building_block" transform="matrix(0.517988,0,0,0.539409,249.266,123.899)">
                <path d="M187,269L245,325L187,381L129,325L187,269Z" style="fill:rgb(0,0,0);"/>
            </g>
            <g id="icon_building_block11" serif:id="icon_building_block" transform="matrix(0.517988,0,0,0.539409,219.18,93.6921)">
                <path d="M187,269L245,325L187,381L129,325L187,269Z" style="fill:rgb(0,0,0);"/>
            </g>
            <g id="icon_building_block12" serif:id="icon_building_block" transform="matrix(0.517988,0,0,0.539409,219.223,33.3292)">
                <path d="M187,269L245,325L187,381L129,325L187,269Z" style="fill:rgb(0,0,0);"/>
            </g>
            <g id="icon_building_block13" serif:id="icon_building_block" transform="matrix(0.517988,0,0,0.539409,189.18,63.4852)">
                <path d="M187,269L245,325L187,381L129,325L187,269Z" style="fill:rgb(0,0,0);"/>
            </g>
            <g id="icon_building_block14" serif:id="icon_building_block" transform="matrix(0.517988,0,0,0.539409,189.18,3.1223)">
                <path d="M187,269L245,325L187,381L129,325L187,269Z" style="fill:rgb(0,0,0);"/>
            </g>
            <g id="icon_building_block15" serif:id="icon_building_block" transform="matrix(0.517988,0,0,0.539409,159.136,-27.0846)">
                <path d="M187,269L245,325L187,381L129,325L187,269Z" style="fill:rgb(0,0,0);"/>
            </g>
            <g id="icon_building_block16" serif:id="icon_building_block" transform="matrix(0.517988,0,0,0.539409,159.136,33.3292)">
                <path d="M187,269L245,325L187,381L129,325L187,269Z" style="fill:rgb(0,0,0);"/>
            </g>
            <g id="icon_building_block17" serif:id="icon_building_block" transform="matrix(0.517988,0,0,0.539409,128.489,-56.8941)">
                <path d="M187,269L245,325L187,381L129,325L187,269Z" style="fill:rgb(0,0,0);"/>
            </g>
            <g id="icon_building_block18" serif:id="icon_building_block" transform="matrix(0.517988,0,0,0.539409,129.093,3.1223)">
                <path d="M187,269L245,325L187,381L129,325L187,269Z" style="fill:rgb(0,0,0);"/>
            </g>
            <g id="icon_building_block19" serif:id="icon_building_block" transform="matrix(0.517988,0,0,0.539409,99.0495,-26.6872)">
                <path d="M187,269L245,325L187,381L129,325L187,269Z" style="fill:rgb(0,0,0);"/>
            </g>
            <g id="icon_building_block20" serif:id="icon_building_block" transform="matrix(0.517988,0,0,0.539409,129.093,63.4852)">
                <path d="M187,269L245,325L187,381L129,325L187,269Z" style="fill:rgb(0,0,0);"/>
            </g>
            <g id="icon_building_block22" serif:id="icon_building_block" transform="matrix(0.517988,0,0,0.539409,99.0495,93.6921)">
                <path d="M187,269L245,325L187,381L129,325L187,269Z" style="fill:rgb(0,0,0);"/>
            </g>
            <g id="icon_building_block23" serif:id="icon_building_block" transform="matrix(0.517988,0,0,0.539409,99.0495,154.106)">
                <path d="M187,269L245,325L187,381L129,325L187,269Z" style="fill:rgb(0,0,0);"/>
            </g>
            <g id="icon_building_block24" serif:id="icon_building_block" transform="matrix(0.517988,0,0,0.539409,129.093,123.899)">
                <path d="M187,269L245,325L187,381L129,325L187,269Z" style="fill:rgb(0,0,0);"/>
            </g>
            <g id="icon_building_block25" serif:id="icon_building_block" transform="matrix(0.517988,0,0,0.539409,189.18,123.899)">
                <path d="M187,269L245,325L187,381L129,325L187,269Z" style="fill:rgb(0,0,0);"/>
            </g>
            <g id="icon_building_block26" serif:id="icon_building_block" transform="matrix(0.517988,0,0,0.539409,219.223,154.106)">
                <path d="M187,269L245,325L187,381L129,325L187,269Z" style="fill:rgb(0,0,0);"/>
            </g>
            <g id="icon_building_block27" serif:id="icon_building_block" transform="matrix(0.517988,0,0,0.539409,129.093,184.313)">
                <path d="M187,269L245,325L187,381L129,325L187,269Z" style="fill:rgb(0,0,0);"/>
            </g>
            <g id="icon_building_block28" serif:id="icon_building_block" transform="matrix(0.517988,0,0,0.539409,219.223,214.52)">
                <path d="M187,269L245,325L187,381L129,325L187,269Z" style="fill:rgb(0,0,0);"/>
            </g>
            <g id="icon_building_block29" serif:id="icon_building_block" transform="matrix(0.517988,0,0,0.539409,159.136,214.52)">
                <path d="M187,269L245,325L187,381L129,325L187,269Z" style="fill:rgb(0,0,0);"/>
            </g>
            <g id="icon_building_block30" serif:id="icon_building_block" transform="matrix(0.517988,0,0,0.539409,189.18,244.727)">
                <path d="M187,269L245,325L187,381L129,325L187,269Z" style="fill:rgb(0,0,0);"/>
            </g>
            <g id="icon_building_block31" serif:id="icon_building_block" transform="matrix(0.517988,0,0,0.539409,159.136,93.6921)">
                <path d="M187,269L245,325L187,381L129,325L187,269Z" style="fill:rgb(0,0,0);"/>
            </g>
            <g id="icon_building_block32" serif:id="icon_building_block" transform="matrix(0.517988,0,0,0.539409,159.136,154.106)">
                <path d="M187,269L245,325L187,381L129,325L187,269Z" style="fill:rgb(0,0,0);"/>
            </g>
        </g>
        <g id="snavel">
            <g id="icon_building_block33" serif:id="icon_building_block" transform="matrix(0.517988,0,0,0.539409,38.9629,33.7266)">
                <path d="M187,269L245,325L187,381L129,325L187,269Z" style="fill:rgb(0,0,0);"/>
            </g>
            <g id="icon_building_block34" serif:id="icon_building_block" transform="matrix(0.517988,0,0,0.539409,38.9629,93.6921)">
                <path d="M187,269L245,325L187,381L129,325L187,269Z" style="fill:rgb(0,0,0);"/>
            </g>
            <g id="icon_building_block35" serif:id="icon_building_block" transform="matrix(0.517988,0,0,0.539409,8.91958,63.9335)">
                <path d="M187,269L245,325L187,381L129,325L187,269Z" style="fill:rgb(0,0,0);"/>
            </g>
        </g>
        <g id="kam">
            <g id="icon_building_block36" serif:id="icon_building_block" transform="matrix(0.517988,0,0,0.539409,68.4028,-56.8941)">
                <path d="M187,269L245,325L187,381L129,325L187,269Z" style="fill:rgb(0,0,0);"/>
            </g>
            <g id="icon_building_block37" serif:id="icon_building_block" transform="matrix(0.517988,0,0,0.539409,128.489,-56.8941)">
                <path d="M187,269L245,325L187,381L129,325L187,269Z" style="fill:rgb(0,0,0);"/>
            </g>
            <g id="icon_building_block38" serif:id="icon_building_block" transform="matrix(0.517988,0,0,0.539409,189.18,-57.2915)">
                <path d="M187,269L245,325L187,381L129,325L187,269Z" style="fill:rgb(0,0,0);"/>
            </g>
            <g id="icon_building_block39" serif:id="icon_building_block" transform="matrix(0.517988,0,0,0.539409,219.223,-27.0846)">
                <path d="M187,269L245,325L187,381L129,325L187,269Z" style="fill:rgb(0,0,0);"/>
            </g>
            <g id="icon_building_block40" serif:id="icon_building_block" transform="matrix(0.517988,0,0,0.539409,189.18,3.1223)">
                <path d="M187,269L245,325L187,381L129,325L187,269Z" style="fill:rgb(0,0,0);"/>
            </g>
            <g id="icon_building_block41" serif:id="icon_building_block" transform="matrix(0.517988,0,0,0.539409,159.136,-27.0846)">
                <path d="M187,269L245,325L187,381L129,325L187,269Z" style="fill:rgb(0,0,0);"/>
            </g>
            <g id="icon_building_block42" serif:id="icon_building_block" transform="matrix(0.517988,0,0,0.539409,98.4461,-26.6872)">
                <path d="M187,269L245,325L187,381L129,325L187,269Z" style="fill:rgb(0,0,0);"/>
            </g>
            <g id="icon_building_block43" serif:id="icon_building_block" transform="matrix(0.517988,0,0,0.539409,219.223,33.7266)">
                <path d="M187,269L245,325L187,381L129,325L187,269Z" style="fill:rgb(0,0,0);"/>
            </g>
        </g>
        <g id="lel">
            <g id="icon_building_block44" serif:id="icon_building_block" transform="matrix(0.517988,0,0,0.539409,129.093,184.313)">
                <path d="M187,269L245,325L187,381L129,325L187,269Z" style="fill:rgb(0,0,0);"/>
            </g>
            <g id="icon_building_block45" serif:id="icon_building_block" transform="matrix(0.517988,0,0,0.539409,38.9629,154.106)">
                <path d="M187,269L245,325L187,381L129,325L187,269Z" style="fill:rgb(0,0,0);"/>
            </g>
            <g id="icon_building_block46" serif:id="icon_building_block" transform="matrix(0.517988,0,0,0.539409,99.0495,154.106)">
                <path d="M187,269L245,325L187,381L129,325L187,269Z" style="fill:rgb(0,0,0);"/>
            </g>
            <g id="icon_building_block47" serif:id="icon_building_block" transform="matrix(0.517988,0,0,0.539409,99.0495,214.52)">
                <path d="M187,269L245,325L187,381L129,325L187,269Z" style="fill:rgb(0,0,0);"/>
            </g>
            <g id="icon_building_block48" serif:id="icon_building_block" transform="matrix(0.517988,0,0,0.539409,129.093,244.727)">
                <path d="M187,269L245,325L187,381L129,325L187,269Z" style="fill:rgb(0,0,0);"/>
            </g>
            <g id="icon_building_block49" serif:id="icon_building_block" transform="matrix(0.517988,0,0,0.539409,38.9629,214.52)">
                <path d="M187,269L245,325L187,381L129,325L187,269Z" style="fill:rgb(0,0,0);"/>
            </g>
            <g id="icon_building_block50" serif:id="icon_building_block" transform="matrix(0.517988,0,0,0.539409,69.0062,184.313)">
                <path d="M187,269L245,325L187,381L129,325L187,269Z" style="fill:rgb(0,0,0);"/>
            </g>
        </g>
        <g id="icon_building_block51" serif:id="icon_building_block" transform="matrix(0.517988,0,0,0.539409,249.266,3.1223)">
            <path d="M187,269L245,325L187,381L129,325L187,269Z" style="fill:rgb(0,0,0);"/>
        </g>
    </g>
</svg>
